<svg width="1435" height="286" viewBox="0 0 1435 286" fill="none" xmlns="http://www.w3.org/2000/svg">
<path d="M160.761 85.63L118.252 89.4337C118.174 77.8376 115.632 65.855 110.172 56.7056C104.617 47.3958 96.0222 41.0022 83.9631 41.0002C75.5742 40.8095 67.4268 43.8211 61.1722 49.4242C54.9162 55.0286 51.0221 62.8063 50.2791 71.1803L50.2772 71.2023V71.2245C50.2772 84.3774 53.6826 93.7348 59.8646 101C66.0312 108.247 74.922 113.365 85.7951 118.121L85.8004 118.123C87.8843 119.006 90.0133 119.893 92.1743 120.792C107.942 127.355 125.415 134.628 139.566 146.652C155.619 160.293 167.403 180.062 167.403 211.917C167.403 234.167 161.029 254.912 148.071 270.085C135.122 285.247 115.559 294.892 89.0765 294.892C51.9977 294.892 26.8042 277.18 14.3331 256.348C4.53708 238.664 -0.216606 218.625 0.587438 198.422L41.5567 195.361C41.6562 218.178 48.0778 233.021 57.2013 242.172C66.3928 251.392 78.2634 254.771 88.9817 254.771C102.362 254.771 111.494 249.321 117.266 241.541C123.023 233.782 125.411 223.745 125.411 214.576C125.411 203.638 122.721 195.29 118.22 188.655C113.723 182.026 107.442 177.141 100.315 173.086C93.7508 169.352 86.4406 166.307 79.1185 163.257C78.4959 162.998 77.8733 162.739 77.251 162.479C69.2962 159.158 61.3957 155.759 54.4081 151.379C38.9071 141.612 27.5338 132.27 20.0268 120.545C12.526 108.83 8.85408 94.6864 8.85408 75.2606C8.85408 67.4118 10.906 48.6987 21.3511 31.9656C31.7744 15.2675 50.5772 0.5 84.1943 0.5C103.363 0.5 117.707 5.85029 128.453 13.8521C139.205 21.8583 146.384 32.5414 151.176 43.2476C155.969 53.9544 158.368 64.6679 159.568 72.7094C160.168 76.7289 160.468 80.0775 160.617 82.4196C160.692 83.5905 160.73 84.5096 160.748 85.1348C160.754 85.3285 160.758 85.4939 160.761 85.63Z" stroke="#A1A1A1"/>
<path d="M235.55 247.576V248.076H236.05H295.412L295.042 288.719H196.402V6.67285H235.55V247.576Z" stroke="#A1A1A1"/>
<path d="M420.647 0.63862L420.654 0.638831H420.662C448.921 0.638831 472.034 13.3331 490.026 38.7937C508.018 64.2534 517 100.539 516.905 147.715V147.716C516.905 195.394 507.436 232.584 488.557 259.345L488.552 259.352L488.547 259.359C481.211 270.525 471.156 279.634 459.33 285.825C447.504 292.017 434.298 295.087 420.959 294.746L420.944 294.746L420.93 294.746C407.538 295.176 394.258 292.188 382.335 286.064C370.413 279.94 360.24 270.88 352.774 259.735L352.767 259.725C333.886 232.963 324.418 196.23 324.418 149.473C324.418 115.512 328.712 87.5644 337.277 65.6097C345.85 43.634 357.006 27.3389 370.722 16.6793C385.047 5.77716 402.665 0.116406 420.647 0.63862ZM365.035 146.979H364.893V147.479C364.893 182.777 370.22 209.349 380.939 227.128C391.646 244.889 404.964 253.85 420.9 253.818C436.926 253.818 450.197 244.939 460.717 227.364C471.247 209.773 476.462 182.756 476.43 146.386C476.43 110.809 471.358 84.409 461.144 67.2614C450.932 50.1162 437.514 41.4868 420.898 41.5189C404.281 41.5192 390.801 50.2287 380.464 67.4978C370.171 84.6928 365.051 111.211 365.035 146.979Z" stroke="#A1A1A1"/>
<path d="M585.196 182.738V289.882H545.906V5.50928H610.107C622.163 5.50928 632.114 5.84152 639.986 6.51647C647.861 7.1916 653.621 8.20708 657.325 9.55847C670.136 14.9297 680.485 24.8962 686.347 37.5084L686.353 37.5208L686.36 37.5329C693.988 51.8412 697.835 70.3189 697.866 92.996L697.866 93.0035L697.867 93.0111C698.426 110.747 695.04 128.384 687.954 144.647L687.951 144.653C682.909 156.681 674.291 166.861 663.271 173.809C653.405 179.372 636.379 182.207 612.098 182.238H585.696H585.196V182.738ZM585.55 45.0598L585.054 45.0634V45.5597V141.475V141.975H585.554H607.832C615.336 141.975 621.642 141.607 626.757 140.872C631.865 140.139 635.818 139.036 638.594 137.548L638.607 137.541L638.62 137.533C644.717 133.786 649.43 128.151 652.046 121.482C655.739 112.552 657.512 102.943 657.249 93.281C657.55 83.4428 655.71 73.6569 651.856 64.6026C649.318 58.01 644.612 52.4807 638.515 48.9264L638.502 48.9187L638.488 48.9119C635.801 47.5579 631.662 46.5647 626.117 45.9061C620.56 45.246 613.547 44.9173 605.083 44.9173L605.079 44.9173L585.55 45.0598Z" stroke="#A1A1A1"/>
<path d="M766.074 247.576V248.076H766.574H825.935L825.565 288.719H726.926V6.67285H766.074V247.576Z" stroke="#A1A1A1"/>
<path d="M914.543 221.554H914.154L914.058 221.93L896.711 289.882H855.094L932.463 5.50928H974.362L1054.05 289.882H1011.43L993.283 221.925L993.184 221.554H992.8H914.543ZM924.676 181.047L924.517 181.671H925.16H982.041H982.69L982.524 181.043L953.562 71.8321L953.07 69.9762L952.595 71.8364L924.676 181.047Z" stroke="#A1A1A1"/>
<path d="M1243.37 85.628L1200.96 89.246C1200.88 77.6492 1198.34 65.6657 1192.88 56.5157C1187.32 47.2058 1178.73 40.8122 1166.67 40.8103C1158.28 40.631 1150.14 43.6465 1143.89 49.2474C1137.64 54.8494 1133.74 62.6203 1132.98 70.9897L1132.98 71.0121V71.0346C1132.98 84.1875 1136.39 93.5449 1142.57 100.81C1148.74 108.057 1157.63 113.175 1168.5 117.931L1168.51 117.933C1170.58 118.812 1172.7 119.693 1174.85 120.588C1190.65 127.155 1208.15 134.429 1222.31 146.463C1238.37 160.103 1250.16 179.872 1250.16 211.727C1250.16 234.072 1243.76 254.864 1230.79 270.061C1217.83 285.247 1198.26 294.892 1171.83 294.892C1134.7 294.892 1109.56 277.18 1097.04 256.348C1087.24 238.664 1082.49 218.625 1083.29 198.422L1124.17 195.361C1124.27 218.178 1130.69 233.021 1139.82 242.172C1149.02 251.392 1160.9 254.771 1171.64 254.771C1185.02 254.771 1194.15 249.321 1199.92 241.541C1205.68 233.782 1208.07 223.745 1208.07 214.576C1208.07 203.638 1205.38 195.29 1200.87 188.655C1196.37 182.026 1190.08 177.141 1182.95 173.086C1176.38 169.354 1169.07 166.31 1161.75 163.262C1161.12 163.001 1160.49 162.74 1159.87 162.479C1151.91 159.157 1144.01 155.759 1137.02 151.379C1121.54 141.612 1110.17 132.27 1102.65 120.545C1095.15 108.83 1091.46 94.6861 1091.46 75.2606C1091.46 67.4121 1093.53 48.699 1103.98 31.9657C1114.41 15.2674 1133.21 0.5 1166.8 0.5C1185.97 0.5 1200.32 5.85029 1211.06 13.8521C1221.82 21.8583 1228.99 32.5414 1233.79 43.2476C1238.58 53.9544 1240.98 64.6679 1242.18 72.7094C1242.78 76.7289 1243.08 80.0775 1243.23 82.4196C1243.3 83.5905 1243.34 84.5096 1243.36 85.1348C1243.36 85.3276 1243.37 85.4924 1243.37 85.628Z" stroke="#A1A1A1"/>
<path d="M1377.51 46.6518V289.882H1338.36V46.6518V46.1518H1337.86H1279.16V5.50928H1436.57V46.1518H1378.01H1377.51V46.6518Z" stroke="#A1A1A1"/>
</svg>
