<svg width="18" height="21" viewBox="0 0 18 21" fill="none" xmlns="http://www.w3.org/2000/svg">
<path d="M16.37 6.16002C16.3319 5.84258 16.1832 5.54872 15.95 5.33002C15.6942 5.10074 15.3635 4.97273 15.02 4.97002H12.58V3.72002C12.5787 2.73372 12.1867 1.78809 11.49 1.09002C11.1456 0.743221 10.7358 0.468283 10.2843 0.281167C9.83286 0.0940513 9.34871 -0.00151378 8.85999 1.81296e-05C7.87369 0.0013449 6.92806 0.393258 6.22999 1.09002C5.53323 1.78809 5.14131 2.73372 5.13999 3.72002V4.97002H2.60999C2.26904 4.97045 1.94069 5.09894 1.68999 5.33002C1.43572 5.55714 1.27526 5.87091 1.23999 6.21002L0.00998872 18.87C-0.0104234 19.0621 0.0100215 19.2564 0.0699863 19.44C0.130996 19.622 0.229829 19.789 0.359987 19.93C0.48848 20.0736 0.645033 20.1893 0.819986 20.27C0.997675 20.3429 1.18793 20.3803 1.37999 20.38H16.24C16.4319 20.3783 16.6217 20.341 16.8 20.27C16.9733 20.1866 17.1294 20.0713 17.26 19.93C17.3901 19.789 17.489 19.622 17.55 19.44C17.61 19.2564 17.6304 19.0621 17.61 18.87L16.37 6.16002ZM6.13999 3.67002C6.14175 2.94931 6.42948 2.25876 6.93999 1.75002C7.44873 1.23951 8.13927 0.951784 8.85999 0.950019C9.58373 0.951325 10.2776 1.23892 10.79 1.75002C11.0414 2.00242 11.2406 2.30191 11.3761 2.63136C11.5117 2.96082 11.581 3.31377 11.58 3.67002V4.92002H6.13999V3.67002ZM16.62 18.97C16.6298 19.0229 16.6298 19.0771 16.62 19.13C16.6007 19.1775 16.5737 19.2214 16.54 19.26C16.5055 19.3011 16.4606 19.3322 16.41 19.35C16.3605 19.3603 16.3095 19.3603 16.26 19.35H1.37999C1.32717 19.3605 1.2728 19.3605 1.21999 19.35C1.17379 19.3293 1.13279 19.2986 1.09999 19.26C1.06627 19.2214 1.03923 19.1775 1.01999 19.13C1.01021 19.0771 1.01021 19.0229 1.01999 18.97L2.25999 6.26002C2.26855 6.16782 2.31137 6.08218 2.37999 6.02002C2.41299 5.98767 2.45208 5.96218 2.49499 5.94501C2.53789 5.92785 2.58378 5.91936 2.62999 5.92002H5.15999V8.63002C5.15999 8.76263 5.21266 8.8898 5.30643 8.98357C5.4002 9.07734 5.52738 9.13002 5.65999 9.13002C5.79259 9.13002 5.91977 9.07734 6.01354 8.98357C6.10731 8.8898 6.15999 8.76263 6.15999 8.63002V5.92002H11.6V8.63002C11.6 8.76263 11.6527 8.8898 11.7464 8.98357C11.8402 9.07734 11.9674 9.13002 12.1 9.13002C12.2326 9.13002 12.3598 9.07734 12.4535 8.98357C12.5473 8.8898 12.6 8.76263 12.6 8.63002V5.92002H15.02C15.0679 5.918 15.1156 5.92584 15.1604 5.94304C15.2051 5.96024 15.2458 5.98644 15.28 6.02002C15.3452 6.08474 15.3873 6.16905 15.4 6.26002L16.62 18.97Z" fill="white"/>
</svg>
