<svg width="66" height="67" viewBox="0 0 66 67" fill="none" xmlns="http://www.w3.org/2000/svg">
<path d="M0.801426 25.9828C4.22574 11.1234 17.5267 0 33.3955 0C49.2643 0 62.574 11.1234 65.9965 25.9828H55.9018C52.8253 16.1683 43.9038 9.0476 33.3955 9.0476C22.8873 9.0476 13.9744 16.1683 10.9013 25.9828H0.801426ZM55.9139 41.0033C52.8409 50.8248 43.9159 57.9524 33.4024 57.9524C22.889 57.9524 13.964 50.8248 10.9013 41.0033H0.806611C4.21708 55.8697 17.5215 67 33.3955 67C49.2695 67 62.5826 55.8697 66 41.0033H55.9139ZM11.6004 33.5589C11.6004 35.2659 11.9464 36.6094 12.6386 37.5892C12.9118 37.9971 13.2841 38.3289 13.7205 38.5536C14.1569 38.7783 14.6431 38.8885 15.1337 38.8739C15.6238 38.8867 16.1091 38.7742 16.5436 38.547C16.9781 38.3197 17.3474 37.9853 17.6167 37.5754C18.3088 36.5955 18.6549 35.2353 18.6549 33.4948C18.6549 31.7728 18.3273 30.4455 17.6721 29.5129C17.0169 28.5803 16.1678 28.114 15.125 28.114C14.4639 28.0949 13.8161 28.3026 13.2892 28.7027C12.7839 29.0962 12.375 29.6935 12.0624 30.4945C11.7498 31.2955 11.5935 32.317 11.5935 33.5589M13.1075 33.4862C13.1075 32.1762 13.2955 31.2078 13.6716 30.5811C14.0476 29.9544 14.535 29.6416 15.1337 29.6427C15.7324 29.6427 16.2163 29.9526 16.5854 30.5724C16.9546 31.1922 17.1397 32.1508 17.1409 33.4481C17.1409 34.7708 16.9511 35.7518 16.5716 36.3912C16.1921 37.0306 15.7128 37.3492 15.1337 37.3469C14.5569 37.3469 14.0759 37.0254 13.6906 36.3826C13.3053 35.7397 13.1109 34.7748 13.1075 33.4879M21.8231 38.699V34.7794H22.7852C23.6723 34.7794 24.2981 34.6761 24.6626 34.4695C25.0688 34.2148 25.3861 33.8404 25.571 33.3979C25.8306 32.8024 25.9548 32.1566 25.9344 31.5073C25.9344 30.6775 25.7942 30.0005 25.5139 29.4765C25.2979 29.0124 24.9166 28.6457 24.4446 28.4482C24.1746 28.3478 23.5984 28.2975 22.7142 28.2975H20.3523V38.7042L21.8231 38.699ZM22.5464 29.7778C23.1612 29.7778 23.565 29.8257 23.7576 29.9215C23.9766 30.0491 24.1456 30.2476 24.2369 30.4841C24.3762 30.8122 24.4423 31.1667 24.4307 31.5229C24.4413 31.8729 24.377 32.2212 24.2421 32.5443C24.1491 32.7845 23.9794 32.9872 23.7594 33.1208C23.5638 33.2265 23.1918 33.2801 22.6468 33.2801H21.8335V29.7778H22.5464ZM50.2316 38.699V29.8159H52.3876V28.2975H46.5979V29.8159H48.7608V38.7042L50.2316 38.699ZM5.88338 31.2494C5.88338 31.2494 5.88338 28.1106 3.06988 28.1106C0.604167 28.1106 0.30136 30.2781 0.30136 30.8546C0.30136 32.276 0.841227 32.9321 1.97286 33.6454C2.99894 34.2877 4.55796 34.3518 4.55796 35.9342C4.55796 36.5972 4.21189 37.3815 3.24637 37.3815C2.46946 37.3815 1.53162 36.8933 1.53162 35.214L0.0037495 35.3282C-0.0283276 36.0737 0.14591 36.8136 0.507269 37.4663C0.967535 38.2315 1.89153 38.8808 3.25329 38.8808C5.19298 38.8808 6.13082 37.4663 6.13082 35.8303C6.13082 33.4965 4.39185 32.9269 3.13909 32.3937C2.34661 32.0475 1.85347 31.6527 1.85347 30.7005C1.88058 30.4 2.0207 30.1209 2.24553 29.9197C2.47037 29.7186 2.76314 29.6103 3.06469 29.6168C3.92985 29.6168 4.29841 30.5309 4.29841 31.3844L5.88338 31.2494ZM45.7293 31.2494C45.7293 31.2494 45.7293 28.1106 42.9158 28.1106C40.45 28.1106 40.1472 30.2781 40.1472 30.8546C40.1472 32.276 40.6854 32.9321 41.8187 33.6454C42.8448 34.2877 44.4038 34.3518 44.4038 35.9342C44.4038 36.5972 44.0578 37.3815 43.0905 37.3815C42.3153 37.3815 41.3775 36.8933 41.3775 35.214L39.8496 35.3282C39.8166 36.0738 39.9909 36.814 40.3531 37.4663C40.8134 38.2315 41.7374 38.8808 43.0974 38.8808C45.0371 38.8808 45.975 37.4663 45.975 35.8303C45.975 33.4965 44.2447 32.9269 42.985 32.3937C42.1925 32.0475 41.6993 31.6527 41.6993 30.7005C41.7265 30.4 41.8666 30.1209 42.0914 29.9197C42.3162 29.7186 42.609 29.6103 42.9106 29.6168C43.7757 29.6168 44.1443 30.5309 44.1443 31.3844L45.7293 31.2494ZM36.8423 36.2129H33.9838L33.3471 38.7042H31.7898L34.6241 28.2975H36.1813L39.0987 38.7042H37.505L36.8423 36.2129ZM36.4461 34.7153L35.3871 30.7334L34.368 34.7153H36.4461ZM31.0336 37.2222H28.85V28.4239H27.3844V38.744H31.0181L31.0336 37.2222ZM11.1799 37.1824H8.99797V28.3928H7.53239V38.7128H11.1661L11.1799 37.1824ZM22.3024 25.9794C24.6747 22.2225 28.76 19.7364 33.3955 19.7364C38.0311 19.7364 42.125 22.2295 44.4955 25.9898H51.9359C50.4389 22.2965 47.8753 19.1336 44.5728 16.9052C41.2703 14.6769 37.3788 13.4842 33.3955 13.4796C29.4145 13.4854 25.5254 14.6778 22.2247 16.9048C18.924 19.1317 16.3613 22.2922 14.8638 25.9828L22.3024 25.9794ZM44.5111 40.9998C42.1406 44.7705 38.0501 47.2636 33.3955 47.2636C28.741 47.2636 24.6574 44.7636 22.2886 40.9964H14.8586C16.353 44.6919 18.9151 47.8574 22.2171 50.0884C25.5192 52.3193 29.4112 53.5142 33.3955 53.5204C37.3794 53.5151 41.2712 52.3214 44.5735 50.0917C47.8758 47.862 50.4385 44.6978 51.9342 41.0033L44.5111 40.9998Z" fill="white"/>
</svg>
